# This file uses centimeters as units for non-parametric coordinates.

mtllib blueEnemy.mtl
g default
v 0.850651 0.000000 -0.525731
v 0.850651 -0.000000 0.525731
v -0.850651 -0.000000 0.525731
v -0.850651 0.000000 -0.525731
v 0.000000 -0.525731 0.850651
v 0.000000 0.525731 0.850651
v 0.000000 0.525731 -0.850651
v 0.000000 -0.525731 -0.850651
v -0.525731 -0.850651 -0.000000
v 0.525731 -0.850651 -0.000000
v 0.525731 0.850651 0.000000
v -0.525731 0.850651 0.000000
vt 0.181818 0.250000
vt 0.363636 0.250000
vt 0.545455 0.250000
vt 0.727273 0.250000
vt 0.909091 0.250000
vt 0.090909 0.416667
vt 0.272727 0.416667
vt 0.454545 0.416667
vt 0.636364 0.416667
vt 0.818182 0.416667
vt 1.000000 0.416667
vt 0.000000 0.583333
vt 0.181818 0.583333
vt 0.363636 0.583333
vt 0.545455 0.583333
vt 0.727273 0.583333
vt 0.909091 0.583333
vt 0.090909 0.750000
vt 0.272727 0.750000
vt 0.454545 0.750000
vt 0.636364 0.750000
vt 0.818182 0.750000
vn 0.934172 -0.356822 0.000000
vn 0.934172 -0.356822 0.000000
vn 0.934172 -0.356822 0.000000
vn 0.934172 0.356822 0.000000
vn 0.934172 0.356822 0.000000
vn 0.934172 0.356822 0.000000
vn 0.356822 0.000000 -0.934172
vn 0.356822 0.000000 -0.934172
vn 0.356822 0.000000 -0.934172
vn 0.577350 0.577350 -0.577350
vn 0.577350 0.577350 -0.577350
vn 0.577350 0.577350 -0.577350
vn 0.577350 -0.577350 -0.577350
vn 0.577350 -0.577350 -0.577350
vn 0.577350 -0.577350 -0.577350
vn 0.356822 0.000000 0.934172
vn 0.356822 0.000000 0.934172
vn 0.356822 0.000000 0.934172
vn 0.577350 -0.577350 0.577350
vn 0.577350 -0.577350 0.577350
vn 0.577350 -0.577350 0.577350
vn 0.577350 0.577350 0.577350
vn 0.577350 0.577350 0.577350
vn 0.577350 0.577350 0.577350
vn -0.934172 -0.356822 0.000000
vn -0.934172 -0.356822 0.000000
vn -0.934172 -0.356822 0.000000
vn -0.934172 0.356822 0.000000
vn -0.934172 0.356822 0.000000
vn -0.934172 0.356822 0.000000
vn -0.356822 0.000000 0.934172
vn -0.356822 0.000000 0.934172
vn -0.356822 0.000000 0.934172
vn -0.577350 -0.577350 0.577350
vn -0.577350 -0.577350 0.577350
vn -0.577350 -0.577350 0.577350
vn -0.577350 0.577350 0.577350
vn -0.577350 0.577350 0.577350
vn -0.577350 0.577350 0.577350
vn -0.356822 0.000000 -0.934172
vn -0.356822 0.000000 -0.934172
vn -0.356822 0.000000 -0.934172
vn -0.577350 0.577350 -0.577350
vn -0.577350 0.577350 -0.577350
vn -0.577350 0.577350 -0.577350
vn -0.577350 -0.577350 -0.577350
vn -0.577350 -0.577350 -0.577350
vn -0.577350 -0.577350 -0.577350
vn 0.000000 -0.934172 0.356822
vn 0.000000 -0.934172 0.356822
vn 0.000000 -0.934172 0.356822
vn 0.000000 0.934172 0.356822
vn 0.000000 0.934172 0.356822
vn 0.000000 0.934172 0.356822
vn 0.000000 0.934172 -0.356822
vn 0.000000 0.934172 -0.356822
vn 0.000000 0.934172 -0.356822
vn 0.000000 -0.934172 -0.356822
vn 0.000000 -0.934172 -0.356822
vn 0.000000 -0.934172 -0.356822
s off
g pSolid2
usemtl lambert4SG
f 2/17/1 10/22/2 1/16/3
f 1/16/4 11/10/5 2/17/6
f 1/16/7 8/15/8 7/9/9
f 1/16/10 7/9/11 11/10/12
f 1/16/13 10/21/14 8/15/15
f 5/13/16 2/12/17 6/6/18
f 10/18/19 2/12/20 5/13/21
f 2/17/22 11/10/23 6/11/24
f 4/8/25 9/14/26 3/7/27
f 3/7/28 12/2/29 4/8/30
f 5/13/31 6/6/32 3/7/33
f 3/7/34 9/14/35 5/13/36
f 6/6/37 12/1/38 3/7/39
f 7/9/40 8/15/41 4/8/42
f 4/8/43 12/3/44 7/9/45
f 4/8/46 8/15/47 9/14/48
f 5/13/49 9/14/50 10/19/51
f 6/11/52 11/10/53 12/5/54
f 7/9/55 12/4/56 11/10/57
f 8/15/58 10/20/59 9/14/60
g default
v 0.850651 0.000000 -0.525731
v 0.850651 -0.000000 0.525731
v -0.850651 -0.000000 0.525731
v -0.850651 0.000000 -0.525731
v 0.000000 -0.525731 0.850651
v 0.000000 0.525731 0.850651
v 0.000000 0.525731 -0.850651
v 0.000000 -0.525731 -0.850651
v -0.525731 -0.850651 -0.000000
v 0.525731 -0.850651 -0.000000
v 0.525731 0.850651 0.000000
v -0.525731 0.850651 0.000000
vt 0.181818 0.250000
vt 0.363636 0.250000
vt 0.545455 0.250000
vt 0.727273 0.250000
vt 0.909091 0.250000
vt 0.090909 0.416667
vt 0.272727 0.416667
vt 0.454545 0.416667
vt 0.636364 0.416667
vt 0.818182 0.416667
vt 1.000000 0.416667
vt 0.000000 0.583333
vt 0.181818 0.583333
vt 0.363636 0.583333
vt 0.545455 0.583333
vt 0.727273 0.583333
vt 0.909091 0.583333
vt 0.090909 0.750000
vt 0.272727 0.750000
vt 0.454545 0.750000
vt 0.636364 0.750000
vt 0.818182 0.750000
vn 0.934172 -0.356822 0.000000
vn 0.934172 -0.356822 0.000000
vn 0.934172 -0.356822 0.000000
vn 0.934172 0.356822 0.000000
vn 0.934172 0.356822 0.000000
vn 0.934172 0.356822 0.000000
vn 0.356822 0.000000 -0.934172
vn 0.356822 0.000000 -0.934172
vn 0.356822 0.000000 -0.934172
vn 0.577350 0.577350 -0.577350
vn 0.577350 0.577350 -0.577350
vn 0.577350 0.577350 -0.577350
vn 0.577350 -0.577350 -0.577350
vn 0.577350 -0.577350 -0.577350
vn 0.577350 -0.577350 -0.577350
vn 0.356822 0.000000 0.934172
vn 0.356822 0.000000 0.934172
vn 0.356822 0.000000 0.934172
vn 0.577350 -0.577350 0.577350
vn 0.577350 -0.577350 0.577350
vn 0.577350 -0.577350 0.577350
vn 0.577350 0.577350 0.577350
vn 0.577350 0.577350 0.577350
vn 0.577350 0.577350 0.577350
vn -0.934172 -0.356822 0.000000
vn -0.934172 -0.356822 0.000000
vn -0.934172 -0.356822 0.000000
vn -0.934172 0.356822 0.000000
vn -0.934172 0.356822 0.000000
vn -0.934172 0.356822 0.000000
vn -0.356822 0.000000 0.934172
vn -0.356822 0.000000 0.934172
vn -0.356822 0.000000 0.934172
vn -0.577350 -0.577350 0.577350
vn -0.577350 -0.577350 0.577350
vn -0.577350 -0.577350 0.577350
vn -0.577350 0.577350 0.577350
vn -0.577350 0.577350 0.577350
vn -0.577350 0.577350 0.577350
vn -0.356822 0.000000 -0.934172
vn -0.356822 0.000000 -0.934172
vn -0.356822 0.000000 -0.934172
vn -0.577350 0.577350 -0.577350
vn -0.577350 0.577350 -0.577350
vn -0.577350 0.577350 -0.577350
vn -0.577350 -0.577350 -0.577350
vn -0.577350 -0.577350 -0.577350
vn -0.577350 -0.577350 -0.577350
vn 0.000000 -0.934172 0.356822
vn 0.000000 -0.934172 0.356822
vn 0.000000 -0.934172 0.356822
vn 0.000000 0.934172 0.356822
vn 0.000000 0.934172 0.356822
vn 0.000000 0.934172 0.356822
vn 0.000000 0.934172 -0.356822
vn 0.000000 0.934172 -0.356822
vn 0.000000 0.934172 -0.356822
vn 0.000000 -0.934172 -0.356822
vn 0.000000 -0.934172 -0.356822
vn 0.000000 -0.934172 -0.356822
s off
g pSolid2
f 14/39/61 22/44/62 13/38/63
f 13/38/64 23/32/65 14/39/66
f 13/38/67 20/37/68 19/31/69
f 13/38/70 19/31/71 23/32/72
f 13/38/73 22/43/74 20/37/75
f 17/35/76 14/34/77 18/28/78
f 22/40/79 14/34/80 17/35/81
f 14/39/82 23/32/83 18/33/84
f 16/30/85 21/36/86 15/29/87
f 15/29/88 24/24/89 16/30/90
f 17/35/91 18/28/92 15/29/93
f 15/29/94 21/36/95 17/35/96
f 18/28/97 24/23/98 15/29/99
f 19/31/100 20/37/101 16/30/102
f 16/30/103 24/25/104 19/31/105
f 16/30/106 20/37/107 21/36/108
f 17/35/109 21/36/110 22/41/111
f 18/33/112 23/32/113 24/27/114
f 19/31/115 24/26/116 23/32/117
f 20/37/118 22/42/119 21/36/120
