# This file uses centimeters as units for non-parametric coordinates.

mtllib Marker.mtl
g default
v 0.093884 0.361960 -0.038888
v 0.071856 0.361960 -0.071856
v 0.038888 0.361960 -0.093884
v 0.000000 0.361960 -0.101620
v -0.038888 0.361960 -0.093884
v -0.071856 0.361960 -0.071856
v -0.093884 0.361960 -0.038888
v -0.101620 0.361960 0.000000
v -0.093884 0.361960 0.038888
v -0.071856 0.361960 0.071856
v -0.038888 0.361960 0.093884
v 0.000000 0.361960 0.101620
v 0.038888 0.361960 0.093884
v 0.071856 0.361960 0.071856
v 0.093884 0.361960 0.038888
v 0.101620 0.361960 0.000000
v 0.093884 0.911787 -0.038888
v 0.071856 0.911787 -0.071856
v 0.038888 0.911787 -0.093884
v 0.000000 0.911787 -0.101620
v -0.038888 0.911787 -0.093884
v -0.071856 0.911787 -0.071856
v -0.093884 0.911787 -0.038888
v -0.101620 0.911787 0.000000
v -0.093884 0.911787 0.038888
v -0.071856 0.911787 0.071856
v -0.038888 0.911787 0.093884
v 0.000000 0.911787 0.101620
v 0.038888 0.911787 0.093884
v 0.071856 0.911787 0.071856
v 0.093884 0.911787 0.038888
v 0.101620 0.911787 0.000000
v 0.000000 0.361960 0.000000
v 0.000000 0.911787 0.000000
v 0.071856 0.584351 0.071856
v 0.038888 0.584351 0.093884
v 0.000000 0.584351 0.101620
v -0.038888 0.584351 0.093884
v -0.071856 0.584351 0.071856
v -0.093884 0.584351 0.038888
v -0.101620 0.584351 0.000000
v -0.093884 0.584351 -0.038888
v -0.071856 0.584351 -0.071856
v -0.038888 0.584351 -0.093884
v 0.000000 0.584351 -0.101620
v 0.038888 0.584351 -0.093884
v 0.071856 0.584351 -0.071856
v 0.093884 0.584351 -0.038888
v 0.101620 0.584351 0.000000
v 0.093884 0.584351 0.038888
v 0.146908 0.584351 0.146909
v 0.079506 0.584351 0.191945
v 0.146908 0.911787 0.146909
v 0.079506 0.911787 0.191945
v 0.000000 0.584351 0.207760
v 0.000000 0.911787 0.207760
v -0.079506 0.584351 0.191945
v -0.079506 0.911787 0.191945
v -0.146908 0.584351 0.146909
v -0.146908 0.911787 0.146909
v -0.191945 0.584351 0.079506
v -0.191945 0.911787 0.079506
v -0.207760 0.584351 0.000000
v -0.207760 0.911787 0.000000
v -0.191945 0.584351 -0.079507
v -0.191945 0.911787 -0.079507
v -0.146908 0.584351 -0.146909
v -0.146908 0.911787 -0.146909
v -0.079506 0.584351 -0.191945
v -0.079506 0.911787 -0.191945
v 0.000000 0.584351 -0.207760
v 0.000000 0.911787 -0.207760
v 0.079506 0.584351 -0.191945
v 0.079506 0.911787 -0.191945
v 0.146909 0.584351 -0.146908
v 0.146909 0.911787 -0.146908
v 0.191945 0.584351 -0.079506
v 0.191945 0.911787 -0.079506
v 0.207760 0.584351 0.000000
v 0.207760 0.911787 0.000000
v 0.191945 0.584351 0.079506
v 0.191945 0.911787 0.079506
vt 0.644356 0.096456
vt 0.610485 0.045765
vt 0.559794 0.011894
vt 0.500000 0.000000
vt 0.440206 0.011894
vt 0.389515 0.045765
vt 0.355644 0.096456
vt 0.343750 0.156250
vt 0.355644 0.216044
vt 0.389515 0.266735
vt 0.440206 0.300606
vt 0.500000 0.312500
vt 0.559794 0.300606
vt 0.610485 0.266735
vt 0.644356 0.216044
vt 0.656250 0.156250
vt 0.375000 0.312500
vt 0.390625 0.312500
vt 0.406250 0.312500
vt 0.421875 0.312500
vt 0.437500 0.312500
vt 0.453125 0.312500
vt 0.468750 0.312500
vt 0.484375 0.312500
vt 0.500000 0.312500
vt 0.515625 0.312500
vt 0.531250 0.312500
vt 0.546875 0.312500
vt 0.562500 0.312500
vt 0.578125 0.312500
vt 0.593750 0.312500
vt 0.609375 0.312500
vt 0.625000 0.312500
vt 0.375000 0.688440
vt 0.390625 0.688440
vt 0.406250 0.688440
vt 0.421875 0.688440
vt 0.437500 0.688440
vt 0.453125 0.688440
vt 0.468750 0.688440
vt 0.484375 0.688440
vt 0.500000 0.688440
vt 0.515625 0.688440
vt 0.531250 0.688440
vt 0.546875 0.688440
vt 0.562500 0.688440
vt 0.578125 0.688440
vt 0.593750 0.688440
vt 0.609375 0.688440
vt 0.625000 0.688440
vt 0.644356 0.783956
vt 0.610485 0.733265
vt 0.559794 0.699394
vt 0.500000 0.687500
vt 0.440206 0.699394
vt 0.389515 0.733265
vt 0.355644 0.783956
vt 0.343750 0.843750
vt 0.355644 0.903544
vt 0.389515 0.954235
vt 0.440206 0.988106
vt 0.500000 1.000000
vt 0.559794 0.988106
vt 0.610485 0.954235
vt 0.644356 0.903544
vt 0.656250 0.843750
vt 0.500000 0.150000
vt 0.500000 0.837500
vt 0.578125 0.464558
vt 0.562500 0.464558
vt 0.546875 0.464558
vt 0.531250 0.464558
vt 0.515625 0.464558
vt 0.500000 0.464558
vt 0.484375 0.464558
vt 0.468750 0.464558
vt 0.453125 0.464558
vt 0.437500 0.464558
vt 0.421875 0.464558
vt 0.406250 0.464558
vt 0.390625 0.464558
vt 0.625000 0.464558
vt 0.375000 0.464558
vt 0.609375 0.464558
vt 0.593750 0.464558
vt 0.562500 0.464558
vt 0.578125 0.464558
vt 0.578125 0.688440
vt 0.562500 0.688440
vt 0.546875 0.464558
vt 0.546875 0.688440
vt 0.531250 0.464558
vt 0.531250 0.688440
vt 0.515625 0.464558
vt 0.515625 0.688440
vt 0.500000 0.464558
vt 0.500000 0.688440
vt 0.484375 0.464558
vt 0.484375 0.688440
vt 0.468750 0.464558
vt 0.468750 0.688440
vt 0.453125 0.464558
vt 0.453125 0.688440
vt 0.437500 0.464558
vt 0.437500 0.688440
vt 0.421875 0.464558
vt 0.421875 0.688440
vt 0.406250 0.464558
vt 0.406250 0.688440
vt 0.390625 0.464558
vt 0.390625 0.688440
vt 0.375000 0.464558
vt 0.375000 0.688440
vt 0.609375 0.464558
vt 0.625000 0.464558
vt 0.625000 0.688440
vt 0.609375 0.688440
vt 0.593750 0.464558
vt 0.593750 0.688440
vn 0.923880 0.000000 -0.382682
vn 0.707107 0.000000 -0.707107
vn 0.923880 0.000000 -0.382682
vn 0.707107 0.000000 -0.707107
vn 0.382685 0.000000 -0.923879
vn 0.382684 0.000000 -0.923879
vn 0.000002 0.000000 -1.000000
vn 0.000002 0.000000 -1.000000
vn -0.382684 0.000000 -0.923879
vn -0.382684 0.000000 -0.923879
vn -0.707107 0.000000 -0.707107
vn -0.707107 0.000000 -0.707107
vn -0.923878 0.000000 -0.382686
vn -0.923879 0.000000 -0.382686
vn -1.000000 0.000000 0.000000
vn -1.000000 0.000000 0.000000
vn -0.923880 0.000000 0.382683
vn -0.923880 0.000000 0.382683
vn -0.707106 0.000000 0.707108
vn -0.707106 0.000000 0.707108
vn -0.382683 0.000000 0.923880
vn -0.382683 0.000000 0.923880
vn -0.000000 0.000000 1.000000
vn 0.000000 0.000000 1.000000
vn 0.382683 0.000000 0.923880
vn 0.382684 0.000000 0.923879
vn 0.707105 0.000000 0.707109
vn 0.707105 0.000000 0.707109
vn 0.923880 0.000000 0.382683
vn 0.923880 0.000000 0.382683
vn 1.000000 0.000000 0.000000
vn 1.000000 0.000000 -0.000000
vn 0.000000 -1.000000 -0.000000
vn 0.000000 -1.000000 0.000000
vn 0.000000 -1.000000 0.000000
vn 0.000000 -1.000000 -0.000000
vn 0.000000 -1.000000 0.000000
vn 0.000000 -1.000000 0.000000
vn 0.000000 -1.000000 0.000000
vn 0.000000 -1.000000 0.000000
vn 0.000000 -1.000000 0.000000
vn 0.000000 -1.000000 0.000000
vn 0.000000 -1.000000 0.000000
vn 0.000000 -1.000000 -0.000000
vn 0.000000 -1.000000 0.000000
vn 0.000000 -1.000000 0.000000
vn 0.000000 -1.000000 0.000000
vn 0.000000 -1.000000 0.000000
vn 0.000000 -1.000000 0.000000
vn 0.000000 1.000000 -0.000001
vn 0.000000 1.000000 -0.000001
vn 0.000000 1.000000 -0.000000
vn 0.000000 1.000000 -0.000000
vn 0.000000 1.000000 0.000001
vn 0.000000 1.000000 0.000001
vn 0.000000 1.000000 -0.000000
vn 0.000000 1.000000 -0.000001
vn 0.000000 1.000000 -0.000000
vn 0.000000 1.000000 0.000000
vn 0.000000 1.000000 0.000001
vn 0.000000 1.000000 0.000000
vn 0.000000 1.000000 0.000001
vn 0.000000 1.000000 0.000001
vn 0.000000 1.000000 -0.000000
vn 0.000000 1.000000 0.000000
vn 0.000000 1.000000 -0.000000
vn 0.382682 0.000000 0.923880
vn 0.707106 0.000000 0.707107
vn 0.382683 0.000000 0.923880
vn 0.707106 0.000000 0.707107
vn -0.000000 0.000000 1.000000
vn -0.000000 0.000000 1.000000
vn -0.382682 0.000000 0.923880
vn -0.382682 0.000000 0.923880
vn -0.707107 0.000000 0.707106
vn -0.707107 0.000000 0.707106
vn -0.923880 0.000000 0.382683
vn -0.923880 0.000000 0.382683
vn -1.000000 0.000000 -0.000000
vn -1.000000 0.000000 -0.000000
vn -0.923880 0.000000 -0.382683
vn -0.923880 0.000000 -0.382683
vn -0.707106 0.000000 -0.707108
vn -0.707106 0.000000 -0.707108
vn -0.382682 0.000000 -0.923880
vn -0.382682 0.000000 -0.923880
vn 0.000001 0.000000 -1.000000
vn 0.000002 0.000000 -1.000000
vn 0.382684 0.000000 -0.923879
vn 0.382685 0.000000 -0.923879
vn 0.707106 0.000000 -0.707107
vn 0.707106 0.000000 -0.707107
vn 0.923880 0.000000 -0.382683
vn 0.923880 0.000000 -0.382683
vn 1.000000 0.000000 -0.000000
vn 1.000000 0.000000 0.000000
vn 0.923879 0.000000 0.382685
vn 0.923879 0.000000 0.382685
vn 0.000000 -1.000000 -0.000000
vn 0.000000 -1.000000 0.000000
vn 0.000000 -1.000000 -0.000000
vn 0.000000 -1.000000 0.000000
vn 0.000000 1.000000 -0.000000
vn 0.000000 1.000000 0.000000
vn 0.000000 -1.000000 0.000000
vn 0.000000 -1.000000 -0.000000
vn 0.000000 1.000000 -0.000001
vn 0.000000 -1.000000 0.000001
vn 0.000000 -1.000000 -0.000001
vn 0.000000 1.000000 -0.000001
vn 0.000000 -1.000000 0.000001
vn 0.000000 -1.000000 -0.000000
vn 0.000000 1.000000 -0.000000
vn 0.000000 -1.000000 0.000000
vn 0.000000 -1.000000 0.000000
vn 0.000000 1.000000 -0.000000
vn 0.000000 -1.000000 -0.000000
vn 0.000000 -1.000000 -0.000000
vn 0.000000 1.000000 -0.000000
vn 0.000000 -1.000000 -0.000000
vn 0.000000 -1.000000 -0.000000
vn 0.000000 1.000000 0.000000
vn 0.000000 -1.000000 0.000000
vn 0.000000 -1.000000 -0.000000
vn 0.000000 1.000000 -0.000000
vn 0.000000 -1.000000 -0.000000
vn 0.000000 -1.000000 -0.000000
vn 0.000000 1.000000 -0.000001
vn 0.000000 -1.000000 0.000000
vn 0.000000 -1.000000 -0.000000
vn 0.000000 1.000000 -0.000001
vn 0.000000 -1.000000 0.000000
vn 0.000000 -1.000000 0.000000
vn 0.000000 1.000000 -0.000001
vn 0.000000 -1.000000 -0.000000
vn 0.000000 -1.000000 0.000000
vn 0.000000 1.000000 0.000000
vn 0.000000 -1.000000 0.000000
vn 0.000000 -1.000000 -0.000000
vn 0.000000 1.000000 0.000000
vn 0.000000 -1.000000 -0.000000
vn 0.000000 -1.000000 -0.000000
vn 0.000000 1.000000 -0.000000
vn 0.000000 -1.000000 0.000000
vn 0.000000 -1.000000 0.000000
vn 0.000000 1.000000 -0.000000
s 1
g pCylinder22
usemtl lambert3SG
f 1/17/1 2/18/2 48/83/3
f 48/83/3 2/18/2 47/81/4
f 2/18/2 3/19/5 47/81/4
f 47/81/4 3/19/5 46/80/6
f 3/19/5 4/20/7 46/80/6
f 46/80/6 4/20/7 45/79/8
f 4/20/7 5/21/9 45/79/8
f 45/79/8 5/21/9 44/78/10
f 5/21/9 6/22/11 44/78/10
f 44/78/10 6/22/11 43/77/12
f 6/22/11 7/23/13 43/77/12
f 43/77/12 7/23/13 42/76/14
f 7/23/13 8/24/15 42/76/14
f 42/76/14 8/24/15 41/75/16
f 8/24/15 9/25/17 41/75/16
f 41/75/16 9/25/17 40/74/18
f 9/25/17 10/26/19 40/74/18
f 40/74/18 10/26/19 39/73/20
f 10/26/19 11/27/21 39/73/20
f 39/73/20 11/27/21 38/72/22
f 11/27/21 12/28/23 38/72/22
f 38/72/22 12/28/23 37/71/24
f 12/28/23 13/29/25 37/71/24
f 37/71/24 13/29/25 36/70/26
f 13/29/25 14/30/27 36/70/26
f 36/70/26 14/30/27 35/69/28
f 14/30/27 15/31/29 35/69/28
f 35/69/28 15/31/29 50/85/30
f 15/31/29 16/32/31 50/85/30
f 50/85/30 16/32/31 49/84/32
f 16/32/31 1/33/1 49/84/32
f 49/84/32 1/33/1 48/82/3
s 2
f 2/2/33 1/1/34 33/67/35
f 3/3/36 2/2/33 33/67/35
f 4/4/37 3/3/36 33/67/35
f 5/5/38 4/4/37 33/67/35
f 6/6/39 5/5/38 33/67/35
f 7/7/40 6/6/39 33/67/35
f 8/8/41 7/7/40 33/67/35
f 9/9/42 8/8/41 33/67/35
f 10/10/43 9/9/42 33/67/35
f 11/11/44 10/10/43 33/67/35
f 12/12/45 11/11/44 33/67/35
f 13/13/46 12/12/45 33/67/35
f 14/14/47 13/13/46 33/67/35
f 15/15/48 14/14/47 33/67/35
f 16/16/49 15/15/48 33/67/35
f 1/1/34 16/16/49 33/67/35
s 3
f 17/65/50 18/64/51 34/68/52
f 18/64/51 19/63/53 34/68/52
f 19/63/53 20/62/54 34/68/52
f 20/62/54 21/61/55 34/68/52
f 21/61/55 22/60/56 34/68/52
f 22/60/56 23/59/57 34/68/52
f 23/59/57 24/58/58 34/68/52
f 24/58/58 25/57/59 34/68/52
f 25/57/59 26/56/60 34/68/52
f 26/56/60 27/55/61 34/68/52
f 27/55/61 28/54/62 34/68/52
f 28/54/62 29/53/63 34/68/52
f 29/53/63 30/52/64 34/68/52
f 30/52/64 31/51/65 34/68/52
f 31/51/65 32/66/66 34/68/52
f 32/66/66 17/65/50 34/68/52
s 4
f 52/86/67 51/87/68 54/89/69
f 54/89/69 51/87/68 53/88/70
f 55/90/71 52/86/67 56/91/72
f 56/91/72 52/86/67 54/89/69
f 57/92/73 55/90/71 58/93/74
f 58/93/74 55/90/71 56/91/72
f 59/94/75 57/92/73 60/95/76
f 60/95/76 57/92/73 58/93/74
f 61/96/77 59/94/75 62/97/78
f 62/97/78 59/94/75 60/95/76
f 63/98/79 61/96/77 64/99/80
f 64/99/80 61/96/77 62/97/78
f 65/100/81 63/98/79 66/101/82
f 66/101/82 63/98/79 64/99/80
f 67/102/83 65/100/81 68/103/84
f 68/103/84 65/100/81 66/101/82
f 69/104/85 67/102/83 70/105/86
f 70/105/86 67/102/83 68/103/84
f 71/106/87 69/104/85 72/107/88
f 72/107/88 69/104/85 70/105/86
f 73/108/89 71/106/87 74/109/90
f 74/109/90 71/106/87 72/107/88
f 75/110/91 73/108/89 76/111/92
f 76/111/92 73/108/89 74/109/90
f 77/112/93 75/110/91 78/113/94
f 78/113/94 75/110/91 76/111/92
f 79/114/95 77/115/93 80/117/96
f 80/117/96 77/115/93 78/116/94
f 81/118/97 79/114/95 82/119/98
f 82/119/98 79/114/95 80/117/96
f 51/87/68 81/118/97 53/88/70
f 53/88/70 81/118/97 82/119/98
s 5
f 36/70/99 35/69/100 52/86/101
f 52/86/101 35/69/100 51/87/102
s 3
f 30/47/64 29/46/63 53/88/103
f 53/88/103 29/46/63 54/89/104
s 5
f 37/71/105 36/70/99 55/90/106
f 55/90/106 36/70/99 52/86/101
s 3
f 29/46/63 28/45/62 54/89/104
f 54/89/104 28/45/62 56/91/107
s 5
f 38/72/108 37/71/105 57/92/109
f 57/92/109 37/71/105 55/90/106
s 3
f 28/45/62 27/44/61 56/91/107
f 56/91/107 27/44/61 58/93/110
s 5
f 39/73/111 38/72/108 59/94/112
f 59/94/112 38/72/108 57/92/109
s 3
f 27/44/61 26/43/60 58/93/110
f 58/93/110 26/43/60 60/95/113
s 5
f 40/74/114 39/73/111 61/96/115
f 61/96/115 39/73/111 59/94/112
s 3
f 26/43/60 25/42/59 60/95/113
f 60/95/113 25/42/59 62/97/116
s 5
f 41/75/117 40/74/114 63/98/118
f 63/98/118 40/74/114 61/96/115
s 3
f 25/42/59 24/41/58 62/97/116
f 62/97/116 24/41/58 64/99/119
s 5
f 42/76/120 41/75/117 65/100/121
f 65/100/121 41/75/117 63/98/118
s 3
f 24/41/58 23/40/57 64/99/119
f 64/99/119 23/40/57 66/101/122
s 5
f 43/77/123 42/76/120 67/102/124
f 67/102/124 42/76/120 65/100/121
s 3
f 23/40/57 22/39/56 66/101/122
f 66/101/122 22/39/56 68/103/125
s 5
f 44/78/126 43/77/123 69/104/127
f 69/104/127 43/77/123 67/102/124
s 3
f 22/39/56 21/38/55 68/103/125
f 68/103/125 21/38/55 70/105/128
s 5
f 45/79/129 44/78/126 71/106/130
f 71/106/130 44/78/126 69/104/127
s 3
f 21/38/55 20/37/54 70/105/128
f 70/105/128 20/37/54 72/107/131
s 5
f 46/80/132 45/79/129 73/108/133
f 73/108/133 45/79/129 71/106/130
s 3
f 20/37/54 19/36/53 72/107/131
f 72/107/131 19/36/53 74/109/134
s 5
f 47/81/135 46/80/132 75/110/136
f 75/110/136 46/80/132 73/108/133
s 3
f 19/36/53 18/35/51 74/109/134
f 74/109/134 18/35/51 76/111/137
s 5
f 48/83/138 47/81/135 77/112/139
f 77/112/139 47/81/135 75/110/136
s 3
f 18/35/51 17/34/50 76/111/137
f 76/111/137 17/34/50 78/113/140
s 5
f 49/84/141 48/82/138 79/114/142
f 79/114/142 48/82/138 77/115/139
s 3
f 17/50/50 32/49/66 78/116/140
f 78/116/140 32/49/66 80/117/143
s 5
f 50/85/144 49/84/141 81/118/145
f 81/118/145 49/84/141 79/114/142
s 3
f 32/49/66 31/48/65 80/117/143
f 80/117/143 31/48/65 82/119/146
s 5
f 35/69/100 50/85/144 51/87/102
f 51/87/102 50/85/144 81/118/145
s 3
f 31/48/65 30/47/64 82/119/146
f 82/119/146 30/47/64 53/88/103
