# This file uses centimeters as units for non-parametric coordinates.

mtllib skybox.mtl
g default
v -83.734428 0.017256 83.734428
v 83.734428 0.017256 83.734428
v -83.734428 92.851814 83.734428
v 83.734428 92.851814 83.734428
v -83.734428 92.851814 -83.734428
v 83.734428 92.851814 -83.734428
v -83.734428 0.017256 -83.734428
v 83.734428 0.017256 -83.734428
vt 0.375000 0.000000
vt 0.625000 0.000000
vt 0.375000 0.250000
vt 0.625000 0.250000
vt 0.375000 0.500000
vt 0.625000 0.500000
vt 0.375000 0.750000
vt 0.625000 0.750000
vt 0.875000 0.000000
vt 0.875000 0.250000
vt 0.125000 0.000000
vt 0.125000 0.250000
vn 0.707107 0.000000 -0.707107
vn 0.436260 -0.786991 -0.436260
vn -0.707107 0.000000 -0.707107
vn -0.436260 -0.786991 -0.436260
vn 0.436260 -0.786991 0.436260
vn -0.436260 -0.786991 0.436260
vn 0.707107 0.000000 0.707107
vn -0.707107 0.000000 0.707107
s 1
g pCube2
usemtl lambert8SG
f 1/1/1 3/3/2 2/2/3
f 2/2/3 3/3/2 4/4/4
f 3/3/2 5/5/5 4/4/4
f 4/4/4 5/5/5 6/6/6
f 5/5/5 7/7/7 6/6/6
f 6/6/6 7/7/7 8/8/8
f 2/2/3 4/4/4 8/9/8
f 8/9/8 4/4/4 6/10/6
f 7/11/7 5/12/5 1/1/1
f 1/1/1 5/12/5 3/3/2
g default
v -83.734428 0.017256 83.734428
v 83.734428 0.017256 83.734428
v -83.734428 92.851814 83.734428
v 83.734428 92.851814 83.734428
v -83.734428 92.851814 -83.734428
v 83.734428 92.851814 -83.734428
v -83.734428 0.017256 -83.734428
v 83.734428 0.017256 -83.734428
vt 0.375000 0.000000
vt 0.625000 0.000000
vt 0.375000 0.250000
vt 0.625000 0.250000
vt 0.375000 0.500000
vt 0.625000 0.500000
vt 0.375000 0.750000
vt 0.625000 0.750000
vt 0.875000 0.000000
vt 0.875000 0.250000
vt 0.125000 0.000000
vt 0.125000 0.250000
vn 0.707107 0.000000 -0.707107
vn 0.436260 -0.786991 -0.436260
vn -0.707107 0.000000 -0.707107
vn -0.436260 -0.786991 -0.436260
vn 0.436260 -0.786991 0.436260
vn -0.436260 -0.786991 0.436260
vn 0.707107 0.000000 0.707107
vn -0.707107 0.000000 0.707107
s 1
g pCube2
f 9/13/9 11/15/10 10/14/11
f 10/14/11 11/15/10 12/16/12
f 11/15/10 13/17/13 12/16/12
f 12/16/12 13/17/13 14/18/14
f 13/17/13 15/19/15 14/18/14
f 14/18/14 15/19/15 16/20/16
f 10/14/11 12/16/12 16/21/16
f 16/21/16 12/16/12 14/22/14
f 15/23/15 13/24/13 9/13/9
f 9/13/9 13/24/13 11/15/10
